<?xml version="1.0" encoding="UTF-8" standalone="no"?>
<svg
   width="76.344566"
   height="78.079498"
   viewBox="0 0 20.199499 20.658533"
   version="1.1"
   id="svg8"
   inkscape:version="1.1 (c68e22c387, 2021-05-23)"
   sodipodi:docname="logo.svg"
   xmlns:inkscape="http://www.inkscape.org/namespaces/inkscape"
   xmlns:sodipodi="http://sodipodi.sourceforge.net/DTD/sodipodi-0.dtd"
   xmlns="http://www.w3.org/2000/svg"
   xmlns:svg="http://www.w3.org/2000/svg"
   xmlns:rdf="http://www.w3.org/1999/02/22-rdf-syntax-ns#"
   xmlns:cc="http://creativecommons.org/ns#"
   xmlns:dc="http://purl.org/dc/elements/1.1/">
  <defs
     id="defs2" />
  <sodipodi:namedview
     id="base"
     pagecolor="#ffffff"
     bordercolor="#666666"
     borderopacity="1.0"
     inkscape:pageopacity="0.0"
     inkscape:pageshadow="2"
     inkscape:zoom="5.6568542"
     inkscape:cx="38.448932"
     inkscape:cy="50.646524"
     inkscape:document-units="mm"
     inkscape:current-layer="g80"
     inkscape:document-rotation="0"
     showgrid="false"
     fit-margin-top="0"
     fit-margin-left="0"
     fit-margin-right="0"
     fit-margin-bottom="0"
     units="px"
     inkscape:snap-nodes="false"
     inkscape:window-width="1264"
     inkscape:window-height="967"
     inkscape:window-x="195"
     inkscape:window-y="16"
     inkscape:window-maximized="0"
     inkscape:pagecheckerboard="0" />
  <metadata
     id="metadata5">
    <rdf:RDF>
      <cc:Work
         rdf:about="">
        <dc:format>image/svg+xml</dc:format>
        <dc:type
           rdf:resource="http://purl.org/dc/dcmitype/StillImage" />
        <dc:title />
      </cc:Work>
    </rdf:RDF>
  </metadata>
  <g
     inkscape:label="Layer 1"
     inkscape:groupmode="layer"
     id="layer1"
     transform="translate(-83.88356,-104.99257)">
    <g
       id="g80"
       transform="matrix(0.73297348,0,0,0.73297348,25.931544,32.272204)"
       inkscape:export-xdpi="97.790001"
       inkscape:export-ydpi="97.790001">
      <g
         id="g73"
         transform="matrix(1.5055121,0,0,1.5055121,-52.233287,-57.332933)">
        <g
           id="g4569">
          <path
             id="path55"
             style="fill:#00a5dd;fill-opacity:1;stroke-width:0.131625"
             d="m 16.234375,16.011719 v 11.779297 h 32.199219 v 32.199218 h 13.875 V 27.791016 27.560547 16.011719 Z"
             transform="matrix(0.36097259,0,0,0.36097259,82.710841,99.200975)" />
        </g>
      </g>
      <path
         style="fill:#005cb9;fill-opacity:1;stroke-width:0.100594"
         d="m 89.863177,115.78335 c -3.185487,0 -6.370976,0 -9.556463,0 0,-2.48133 0,-4.96267 0,-7.44399 5.666818,0 11.333632,0 17.00045,0 0,5.66682 0,11.33363 0,17.00045 -2.48133,0 -4.962656,0 -7.443987,0 0,-3.1855 0,-6.37098 0,-9.55646 z"
         id="path63"
         sodipodi:nodetypes="ccccccc" />
      <path
         style="fill:#0000ad;fill-opacity:1;stroke-width:0.100594"
         d="m 79.549685,117.04427 c 3.337205,0.001 6.005134,-0.0181 9.062328,-0.0135 -0.0047,3.05136 -0.0093,6.10272 -0.01415,9.15407 -3.017831,-0.005 -6.035655,-0.009 -9.053486,-0.0136 0.008,-3.04226 0.0063,-6.08452 0.0053,-9.12679 z"
         id="path67"
         sodipodi:nodetypes="ccccc" />
    </g>
  </g>
</svg>
