<?xml version="1.0" encoding="UTF-8" standalone="no"?>
<svg
   width="76.344566"
   height="78.079498"
   viewBox="0 0 20.199499 20.658533"
   version="1.1"
   id="svg8"
   inkscape:version="1.1 (c68e22c387, 2021-05-23)"
   sodipodi:docname="logo.svg"
   xmlns:inkscape="http://www.inkscape.org/namespaces/inkscape"
   xmlns:sodipodi="http://sodipodi.sourceforge.net/DTD/sodipodi-0.dtd"
   xmlns="http://www.w3.org/2000/svg"
   xmlns:svg="http://www.w3.org/2000/svg"
   xmlns:rdf="http://www.w3.org/1999/02/22-rdf-syntax-ns#"
   xmlns:cc="http://creativecommons.org/ns#"
   xmlns:dc="http://purl.org/dc/elements/1.1/">
  <defs
     id="defs2" />
  <sodipodi:namedview
     id="base"
     pagecolor="#ffffff"
     bordercolor="#666666"
     borderopacity="1.0"
     inkscape:pageopacity="0.0"
     inkscape:pageshadow="2"
     inkscape:zoom="5.6568542"
     inkscape:cx="36.681164"
     inkscape:cy="20.948038"
     inkscape:document-units="mm"
     inkscape:current-layer="g4569"
     inkscape:document-rotation="0"
     showgrid="false"
     fit-margin-top="0"
     fit-margin-left="0"
     fit-margin-right="0"
     fit-margin-bottom="0"
     units="px"
     inkscape:snap-nodes="false"
     inkscape:window-width="1264"
     inkscape:window-height="967"
     inkscape:window-x="195"
     inkscape:window-y="16"
     inkscape:window-maximized="0"
     inkscape:pagecheckerboard="0" />
  <metadata
     id="metadata5">
    <rdf:RDF>
      <cc:Work
         rdf:about="">
        <dc:format>image/svg+xml</dc:format>
        <dc:type
           rdf:resource="http://purl.org/dc/dcmitype/StillImage" />
        <dc:title />
      </cc:Work>
    </rdf:RDF>
  </metadata>
  <g
     inkscape:label="Layer 1"
     inkscape:groupmode="layer"
     id="layer1"
     transform="translate(-83.88356,-104.99257)">
    <g
       id="g80"
       transform="matrix(0.73297348,0,0,0.73297348,25.931544,32.272204)"
       inkscape:export-xdpi="97.790001"
       inkscape:export-ydpi="97.790001">
      <g
         id="g73"
         transform="translate(-3.6465668,0.0118454)">
        <g
           id="g4569">
          <path
             id="path55"
             style="fill:#00a5dd;fill-opacity:1;stroke-width:0.131625"
             d="M 16.234375 16.011719 L 16.234375 27.791016 L 48.433594 27.791016 L 48.433594 59.990234 L 62.308594 59.990234 L 62.308594 27.791016 L 62.308594 27.560547 L 62.308594 16.011719 L 16.234375 16.011719 z "
             transform="matrix(0.36097259,0,0,0.36097259,82.710841,99.200975)" />
        </g>
      </g>
      <path
         style="fill:#005cb9;fill-opacity:1;stroke-width:0.0668173"
         d="m 90.737575,115.00015 c -2.115883,0 -4.231767,0 -6.34765,0 0,-1.64816 0,-3.29633 0,-4.94449 3.764047,0 7.528091,0 11.292138,0 0,3.76405 0,7.52809 0,11.29214 -1.648163,0 -3.296324,0 -4.944488,0 0,-2.11589 0,-4.23177 0,-6.34765 z"
         id="path63"
         sodipodi:nodetypes="ccccccc" />
      <path
         style="fill:#0000ad;fill-opacity:1;stroke-width:0.0668173"
         d="m 83.887087,115.83769 c 2.216658,7.9e-4 3.988765,-0.012 6.019432,-0.009 -0.0031,2.02679 -0.0062,4.05358 -0.0094,6.08037 -2.004521,-0.003 -4.009038,-0.006 -6.013559,-0.009 0.0053,-2.02075 0.0042,-4.0415 0.0035,-6.06225 z"
         id="path67"
         sodipodi:nodetypes="ccccc" />
    </g>
  </g>
</svg>
