<?xml version="1.0" standalone="no"?>
<!DOCTYPE svg PUBLIC "-//W3C//DTD SVG 20010904//EN"
 "http://www.w3.org/TR/2001/REC-SVG-20010904/DTD/svg10.dtd">
<svg version="1.0" xmlns="http://www.w3.org/2000/svg"
 width="624.000000pt" height="624.000000pt" viewBox="0 0 624.000000 624.000000"
 preserveAspectRatio="xMidYMid meet">
<metadata>
Created by potrace 1.14, written by Peter Selinger 2001-2017
</metadata>
<g transform="translate(0.000000,624.000000) scale(0.100000,-0.100000)"
fill="#000000" stroke="none">
<path d="M528 5901 c0 -3 -2 -322 -3 -708 l-1 -703 1936 0 1936 0 -1 -1931 c0
-1277 3 -1933 10 -1937 17 -11 1654 -8 1658 3 2 5 3 1196 3 2645 l-1 2635
-2767 1 c-1523 0 -2769 -2 -2770 -5z"/>
<path d="M347 4213 c-2 -5 -3 -375 -3 -823 l1 -815 1054 -2 c579 -1 1055 -4
1057 -6 3 -2 4 -479 4 -1058 l0 -1054 822 0 823 0 2 1883 2 1882 -1879 0
c-1033 0 -1881 -3 -1883 -7z"/>
<path d="M197 2292 c-9 -2 -17 -7 -18 -10 -3 -31 -4 -1990 -1 -1999 3 -10 220
-13 1003 -13 l999 0 0 252 c0 139 1 588 1 998 1 410 1 752 0 760 -1 14 -111
15 -984 15 -541 0 -991 -1 -1000 -3z"/>
</g>
</svg>
